<?xml version="1.0" encoding="utf-8"?>
<!-- Generator: Adobe Illustrator 21.0.0, SVG Export Plug-In . SVG Version: 6.00 Build 0)  -->
<svg version="1.1" id="Camada_1" xmlns="http://www.w3.org/2000/svg" xmlns:xlink="http://www.w3.org/1999/xlink" x="0px" y="0px"
	 viewBox="0 0 100 100" style="enable-background:new 0 0 100 100;" xml:space="preserve">
<style type="text/css">
	.st0{fill:#B43B26;}
</style>
<path class="st0" d="M120.9,93.5c0,0-15.7,5.8-21.4,5.7c-5.2-0.1-14-5.5-19.3-5.7c-8.5-0.3-24.3,7.2-32.8,6.5
	c-6-0.5-16.2-6.4-22.2-6.5C18.5,93.4,0,99.9,0,99.9v-8.1c0,0,18.9-6.6,25.7-6.5c5.9,0.1,15.8,6,21.6,6.5c8.5,0.8,24.3-6.8,32.8-6.5
	c5.3,0.2,14.5,5.6,19.9,5.7c5.6,0,20.9-5.7,20.9-5.7v8.1H120.9z"/>
</svg>
