<svg id="Camada_1" data-name="Camada 1" xmlns="http://www.w3.org/2000/svg" viewBox="0 0 140 23.05"><defs><style>.cls-1{fill:#b43b26;}</style></defs><title>logoprincipal</title><path class="cls-1" d="M39.36,25.6H31.81a.8.8,0,0,1-.81-.88V6.85A1,1,0,0,0,30,6H28.46a.87.87,0,0,0-.89.88V28a1,1,0,0,0,.89,1H39.36c.5,0,.68-.52.68-1V26.53C40,26,39.86,25.6,39.36,25.6Z" transform="translate(-5 -5.97)"/><path class="cls-1" d="M46.81,11.58A8,8,0,0,1,49.3,9.79a7.2,7.2,0,0,1,3.05-.66,7.31,7.31,0,0,1,3.68,1,8.08,8.08,0,0,1,2.2,1.83.92.92,0,0,0,1.26.18l1.28-1a.86.86,0,0,0,.16-1.25,11.51,11.51,0,0,0-3.37-2.67,11.4,11.4,0,0,0-8.78-.67,14.1,14.1,0,0,0-1.65.72,11.48,11.48,0,0,0-2.79,2.06A11.63,11.63,0,0,0,41.92,13a11.58,11.58,0,0,0,0,8.91,11.43,11.43,0,0,0,6,6.08,11.32,11.32,0,0,0,9.62-.35A11.46,11.46,0,0,0,60.92,25a.86.86,0,0,0-.16-1.25l-1.28-1a.92.92,0,0,0-1.26.18A8.07,8.07,0,0,1,56,24.76a7.29,7.29,0,0,1-3.68,1,7.19,7.19,0,0,1-3.05-.66,8,8,0,0,1-2.49-1.78,8.6,8.6,0,0,1-1.69-2.63,8.59,8.59,0,0,1,0-6.44A8.61,8.61,0,0,1,46.81,11.58Z" transform="translate(-5 -5.97)"/><path class="cls-1" d="M94.67,6H81.83a1,1,0,0,0-1,.88V8.27a.91.91,0,0,0,1,.82h3.86a1.14,1.14,0,0,1,1.08,1V27.94c0,.5.23,1.08.73,1.08H89c.5,0,.88-.58.88-1.08V10.07a1,1,0,0,1,.93-1h3.86a.77.77,0,0,0,.82-.82V6.85A.82.82,0,0,0,94.67,6Z" transform="translate(-5 -5.97)"/><path class="cls-1" d="M121.4,6h-1.54a1,1,0,0,0-1,.88V28a1.13,1.13,0,0,0,1,1.05h1.54a1,1,0,0,0,.88-1.05V6.85A.86.86,0,0,0,121.4,6Z" transform="translate(-5 -5.97)"/><path class="cls-1" d="M14.4,6.75c-.19-.46-.49-.46-.68,0L5.06,28.08a.64.64,0,0,0,.56.94H22.5a.64.64,0,0,0,.56-.94ZM17.61,25.6h-7.1a.56.56,0,0,1-.58-.81l3.8-9.72c.18-.46.48-.46.66,0l3.8,9.71A.56.56,0,0,1,17.61,25.6Z" transform="translate(-5 -5.97)"/><path class="cls-1" d="M73.09,6.75c-.19-.46-.49-.46-.68,0L63.75,28.08a.64.64,0,0,0,.56.94H81.19a.64.64,0,0,0,.56-.94ZM76.3,25.6H69.2a.56.56,0,0,1-.58-.81l3.8-9.72c.18-.46.47-.46.66,0l3.79,9.71A.56.56,0,0,1,76.3,25.6Z" transform="translate(-5 -5.97)"/><path class="cls-1" d="M144.94,28.08,136.28,6.8c-.19-.46-.5-.49-.68,0L126.94,28.1a.63.63,0,0,0,.56.93h16.88A.64.64,0,0,0,144.94,28.08Zm-5.45-2.48h-7.1a.55.55,0,0,1-.57-.81l3.8-9.72c.18-.46.47-.46.66,0l3.8,9.71A.56.56,0,0,1,139.49,25.6Z" transform="translate(-5 -5.97)"/><path class="cls-1" d="M112.61,25.6h-8.39c-.5,0-.63-.48-.63-1V19.83c0-.5.13-.77.63-.77H109a1.2,1.2,0,0,0,1.09-1V16.7c0-.5-.59-.76-1.09-.76h-4.82c-.05,0,0-.06-.07,0-.44-.08-.56-.57-.56-.88V10.1c0-.5.13-.7.63-.7h8.18c.5,0,.85-.6.85-1.1V6.88a.86.86,0,0,0-.85-.91H100.9c-.5,0-.74.41-.74.91v21c0,.5.24,1.11.74,1.11h11.71a1.15,1.15,0,0,0,.94-1.11V26.43A.88.88,0,0,0,112.61,25.6Z" transform="translate(-5 -5.97)"/></svg>