<?xml version="1.0" encoding="utf-8"?>
<!-- Generator: Adobe Illustrator 21.0.0, SVG Export Plug-In . SVG Version: 6.00 Build 0)  -->
<svg version="1.1" id="Camada_1" xmlns="http://www.w3.org/2000/svg" xmlns:xlink="http://www.w3.org/1999/xlink" x="0px" y="0px"
	 viewBox="0 0 500 500" style="enable-background:new 0 0 500 500;" xml:space="preserve">
<style type="text/css">
	.st0{fill:#9B3D2B;}
</style>
<path class="st0" d="M485.4,200.4c-12-3.9-24.8-4.1-37.3-3.3c-10.2,0.7-20.5,2.1-30.7,1c-9.8-1-18.5-5.1-25.6-12
	c-8-7.8-12.2-17.3-12.9-28.4c-1.4-20.8,4.3-41.6-1.1-62.2c-5.6-21.2-22-39.5-42.4-47.5c-11.6-4.5-24.1-5.3-36.4-4.8
	c-10.6,0.5-21.3,2.1-31.9,1.5c-9.7-0.5-18.7-3.6-26.2-9.9c-4.3-3.7-8.1-8.1-10.7-13.1c-2.4-4.5-3.1-9.7-7.1-13.1
	c-3.7-3.1-8.8-4-13.4-2.5c-4.8,1.6-7.8,5.4-9.2,10.1c-3.5,11.4-3.7,23.5-2.9,35.3c0.8,11.8,2.6,24,0.4,35.7
	c-1.8,9.6-7,17.7-14.3,24.1c-8.9,7.8-19.8,10.4-31.4,10.3c-10.3,0-20.5-1.5-30.7-1.7c-9.3-0.2-18.7,0.5-27.7,3.2
	c-10.6,3.2-20.1,9-28,16.6c-8,7.8-14.4,17.1-18,27.7c-3.8,11.1-4.4,22.9-3.8,34.5c0.6,12.1,2.7,24.4,0.9,36.4
	c-1.4,9.5-5.8,17.8-12.7,24.5c-4.1,4-9,7.1-14.3,9.2c-4.8,1.9-9,3.6-11.4,8.6c-2,4.3-1.5,9.3,1.1,13.2c3.2,4.7,8.5,6.2,13.8,7.4
	c12.1,2.7,24.4,2.1,36.6,1.1c9.8-0.8,19.8-1.8,29.5,0c10,1.9,18.6,7.6,25.1,15.4c7,8.5,9.2,18.3,9.4,29c0.2,12.3-1.8,24.5-1.6,36.8
	c0.1,8.3,1.1,16.5,3.7,24.4c6.8,21,24.4,38.5,45.5,45.1c12.1,3.8,24.8,3.9,37.3,3c10.1-0.7,20.4-2.1,30.6-0.9
	c9.8,1.1,18.5,5.4,25.5,12.4c4,4,7.3,8.7,9.5,13.9c0.9,2.3,1.5,4.7,2.8,6.7c1.4,2,3.3,3.7,5.4,4.7c4.3,2.1,9.6,1.8,13.7-0.8
	c4.5-2.9,6-7.6,7.2-12.5c2.9-12,2.4-24.4,1.4-36.7c-0.9-11.3-2.3-23.2,0.9-34.3c2.7-9.4,9.2-17.6,17.2-23.2
	c18.1-12.6,41.7-5.5,62.1-5.6c9.5,0,19-1.3,27.9-4.5c10.6-3.9,19.9-10.6,27.6-18.9c7.5-8.2,13-17.9,15.9-28.7c3.1-11.8,2.9-24,2-36
	c-0.8-10.8-2.2-21.9-0.2-32.7c1.7-8.6,6-16.1,12.3-22.2c3.7-3.6,8-6.7,12.8-8.7c4.4-1.9,8.5-2.8,11.3-7.1
	C497.8,213.7,494,203.1,485.4,200.4C470.1,195.4,491.1,202.2,485.4,200.4z M305.5,103.5c0-9.4,4-18.1,11.9-23
	c1.9-1.2,3.4-2.1,5.5-2.9c1.1-0.4,1.9-0.7,3-0.9c1.3,0.3,2.5,0.6,3.7,1.1c4.4,1.6,9.1,4.2,12.3,7.6c4.6,5,7.9,11.6,7.9,18.4
	c0,1.9,0,3.8,0,5.7c0,22.3,0,44.7,0,67c0,20.9,0,41.8,0,62.8c0,1.7-0.8,3.4-0.9,5c-0.6,9.4-6.7,18-14.9,22.6c-2,1.1-4.3,2-6.5,2.6
	c-2.5,0.7-4.9-0.3-7.2-1.4c-4.3-1.9-6.9-4.8-9.8-8.5c-4-5-4.9-11.2-4.9-17.6c0-17.8,0-35.7,0-53.5c0-24.3,0-48.5,0-72.8
	C305.5,111.8,305.5,107.6,305.5,103.5z M226.7,75.4c0-5.5-0.4-11.1-0.8-16.6c9.2,7,20,11.4,31.5,13.1c10.1,1.5,20.3,1,30.4,0.2
	c-6.8,8.9-11.2,19.2-13,30.3c-1.7,10.4-1.2,21-0.4,31.5c-8.6-6.4-18.5-10.7-29-12.5c-10.8-1.9-21.9-1.4-32.8-0.6
	C222.7,107.5,226.7,91.7,226.7,75.4z M132.9,227.6c-3.2,4.5-5.8,9.4-7.8,14.5c-0.5,1.3-1,2.6-1.4,4c-0.3,1-0.5,2.5-1.1,3.4
	c-1.3,1.7-1.7,5.2-1.6,7.2c0.2,2.3-0.4,4.9-0.6,7.2c-0.1,2.2-0.2,4.5-0.2,6.7c0,5.7,0.3,11.4,0.8,17.1c-9.2-7-20-11.3-31.5-13
	c-10.1-1.5-20.3-1-30.4-0.2c6.7-8.9,11.1-19.3,12.9-30.3c1.7-10.4,1.2-21.1,0.3-31.6c8.7,6.6,18.8,10.8,29.5,12.7
	c10.7,1.9,21.6,1.4,32.4,0.5C133.8,226.3,133.4,227,132.9,227.6C132.7,227.9,133.4,227,132.9,227.6z M99.8,196.5
	c-9.5,0-18.4-5.5-23.5-13.4c-1.2-1.9-2.2-4.1-3-6.3c-0.4-1.1-0.7-2.3-0.9-3.4c0.3-1.3,0.7-2.6,1.1-3.9c1.6-4.4,4.4-9.7,7.9-12.9
	c5.2-4.6,11.8-8.5,18.7-8.5c1.9,0,3.8,0,5.7,0c22.3,0,44.7,0,67,0c20.9,0,41.9,0,62.8,0c1.7,0,3.4,1.3,5,1.4
	c9.3,0.6,17.7,7,22.1,15.1c1.1,2,1.9,4.4,2.5,6.6c0.7,2.4-0.3,5-1.3,7.3c-1.8,4.2-4.6,8.5-8.2,11.4c-4.9,4-11,6.5-17.3,6.5
	c-17.8,0-35.7,0-53.5,0c-24.3,0-48.5,0-72.8,0C108,196.5,103.9,196.5,99.8,196.5z M196.7,397.8c0,9.5-6.1,18.4-14,23.5
	c-1.9,1.2-4.4,2.2-6.5,3c-1.1,0.4-2.4,0.7-3.5,0.9c-1.3-0.3-2.7-0.7-4-1.1c-4.4-1.6-7.2-4.4-10.3-7.9c-4.6-5.2-6-11.8-6-18.7
	c0-1.9,0-3.8,0-5.7c0-22.3,0-44.7,0-67c0-20.9,0-41.8,0-62.8c0-1.7-1.3-3.4-1.2-5c0.6-9.3,5.7-17.7,13.8-22.1c2-1.1,3.8-1.9,6-2.5
	c2.4-0.7,4.7,0.3,7,1.3c4.2,1.8,8.9,4.6,11.8,8.2c4,4.9,6.9,11,6.9,17.3c0,17.8,0,35.7,0,53.5c0,24.3,0,48.5,0,72.8
	C196.7,389.5,196.7,393.7,196.7,397.8z M217.3,226.1c9.9,0.7,19.9,0.7,29.7-1.2c10.1-2,19.4-6.2,27.6-12.3
	c-0.8,10.3-1.2,20.6,0.3,30.8c1.6,11.2,6.2,22,13,31c-10.8-0.8-21.7-1.3-32.4,0.5c-10.7,1.9-20.9,6.1-29.5,12.7
	c0.8-10.5,1.4-21-0.3-31.4c-1.8-11-6.1-21.5-12.8-30.4C214.3,225.9,215.8,226,217.3,226.1C218,226.1,215.8,226,217.3,226.1z
	 M273.8,424.7c0,5.5,0.4,11,0.8,16.4c-9.2-7-20-11.4-31.4-13.1c-10.1-1.5-20.3-1-30.4-0.3c6.7-8.9,11-19.3,12.8-30.2
	c1.7-10.4,1.1-21,0.4-31.6c8.5,6.4,18.4,10.6,28.9,12.5c10.9,2,22,1.4,33,0.6C277.9,392.4,273.8,408.3,273.8,424.7z M396.1,353.6
	c-15.8,0-31.5,0-47.3,0c-25,0-50,0-75,0c-5.5,0-11.1,0-16.7,0c-7.4,0-14.6-4.3-19.8-9.6c-3.3-3.3-5.8-8.1-7.2-12.6
	c-0.4-1.2-0.6-2.4-0.3-3.7c0.3-1.1,0.7-2.4,1.1-3.4c0.9-2.3,2.1-4.9,3.5-6.9c5.2-7.1,13.7-12.2,22.5-12.2c1.4,0,2.8,0,4.2,0
	c8.6,0,17.2,0,25.8,0c25.8,0,51.7,0,77.5,0c8.9,0,17.8,0,26.7,0c1.6,0,3.2,0,4.9,0c7.9,0,15.4,3.9,20.5,9.9c2.8,3.3,4.8,7.3,6,11.5
	c1.1,4-2,10.6-4.3,13.9C413.2,347.7,404.9,353.6,396.1,353.6z M427.3,271.2c0,5.4,0.4,10.8,0.8,16.2c-8.3-6.3-18-10.5-28.2-12.4
	c-11.1-2.1-22.3-1.6-33.5-0.8c6.5-8.7,10.8-18.9,12.6-29.5c1.9-10.7,1.3-21.6,0.4-32.3c9.3,7,20.1,11.4,31.5,13
	c10.1,1.5,20.3,1,30.5,0.2C431.5,238.8,427.3,254.8,427.3,271.2z"/>
</svg>
